<svg xmlns="http://www.w3.org/2000/svg" xmlns:xlink="http://www.w3.org/1999/xlink" width="500" zoomAndPan="magnify" viewBox="0 0 375 374.999991" height="500" preserveAspectRatio="xMidYMid meet" version="1.0"><defs><g/><clipPath id="33ef8f5656"><path d="M 179.277344 173.769531 L 275.277344 173.769531 L 275.277344 270.519531 L 179.277344 270.519531 Z M 179.277344 173.769531 " clip-rule="nonzero"/></clipPath><clipPath id="4225e6199b"><path d="M 83.160156 79.390625 L 179.160156 79.390625 L 179.160156 176 L 83.160156 176 Z M 83.160156 79.390625 " clip-rule="nonzero"/></clipPath></defs><g clip-path="url(#33ef8f5656)"><path fill="#5e17eb" d="M 228.828125 174.507812 L 226.382812 174.714844 L 223.941406 174.917969 L 224.78125 174.980469 L 228.828125 174.507812 M 234.5 179.769531 L 234.214844 179.789062 L 234.273438 179.800781 L 234.5 179.769531 M 233.15625 179.859375 L 229.988281 180.078125 L 231.1875 180.234375 L 233.390625 179.925781 L 233.15625 179.859375 M 225.539062 181 L 225.632812 181.011719 L 225.632812 181.015625 L 225.296875 181.058594 L 225.296875 181.0625 L 225.539062 181 M 221.664062 180.316406 L 218.726562 181.222656 L 219.574219 180.605469 L 221.664062 180.316406 M 222.433594 181.824219 L 222.332031 181.824219 L 221.972656 181.945312 C 222.125 181.90625 222.28125 181.863281 222.433594 181.824219 M 230.386719 181.632812 L 233.640625 182.054688 L 233.78125 182.207031 L 230.390625 181.683594 L 226.988281 182 L 223.546875 181.796875 L 230.386719 181.632812 M 237.492188 182.597656 L 237.578125 182.628906 L 237.558594 182.628906 C 237.539062 182.617188 237.515625 182.605469 237.492188 182.597656 M 227.460938 173.832031 L 236.785156 176.03125 L 241.707031 176.742188 L 247.421875 179.363281 L 254.285156 182.890625 L 245.820312 177.761719 L 243.273438 176.699219 L 235.042969 174.210938 L 227.460938 173.832031 M 237.929688 182.792969 L 238.269531 182.871094 L 238.429688 182.929688 L 238.136719 182.882812 L 237.929688 182.792969 M 234.273438 179.800781 L 233.390625 179.925781 L 245.164062 183.121094 L 244.6875 182.851562 L 238.066406 180.566406 L 234.273438 179.800781 M 225.1875 180.957031 L 225.523438 181 L 225.277344 181.0625 L 224.851562 181.125 L 219.695312 182.425781 L 225.195312 181.085938 L 222.433594 181.824219 L 223.285156 181.804688 L 220.421875 182.613281 L 219.921875 182.660156 L 219.480469 182.859375 L 219.183594 182.886719 L 221.972656 181.945312 L 218.699219 182.820312 L 218.527344 182.945312 L 216.183594 183.15625 L 216.75 182.90625 L 225.1875 180.957031 M 218.117188 183.246094 L 218.09375 183.261719 L 218.066406 183.28125 C 217.945312 183.316406 217.820312 183.351562 217.699219 183.386719 C 217.839844 183.339844 217.976562 183.292969 218.117188 183.246094 M 245.164062 183.121094 L 245.414062 183.261719 L 245.667969 183.40625 L 245.761719 183.28125 L 245.164062 183.121094 M 228.070312 176.058594 L 217.828125 178.828125 L 209.007812 182.953125 L 208.355469 183.417969 L 209.257812 183.054688 L 209.667969 182.761719 L 218.757812 178.660156 L 227.964844 176.265625 L 228.070312 176.058594 M 213.519531 179.667969 L 211.003906 179.96875 L 204.066406 183.664062 L 212.019531 180.019531 L 205.4375 183.359375 L 213.519531 179.667969 M 211.433594 182.957031 L 210.691406 183.746094 L 208.914062 184.320312 C 209.753906 183.867188 210.59375 183.414062 211.433594 182.957031 M 215.347656 184.179688 L 213.730469 184.855469 L 214.070312 184.609375 L 215.347656 184.179688 M 243.734375 184.804688 L 243.9375 184.90625 L 244.144531 185.007812 C 244.265625 185.03125 244.386719 185.054688 244.507812 185.078125 C 244.25 184.984375 243.992188 184.894531 243.734375 184.804688 M 246.972656 185.472656 L 248.617188 185.835938 L 247.125 185.558594 L 246.972656 185.472656 M 211.789062 186.265625 L 211.667969 186.355469 L 211.542969 186.445312 C 211.671875 186.386719 211.804688 186.328125 211.933594 186.269531 C 211.886719 186.269531 211.839844 186.269531 211.789062 186.265625 M 241.292969 184.21875 L 243.390625 184.683594 L 243.734375 184.804688 L 243.574219 184.722656 L 245.011719 185.039062 L 245.269531 185.21875 L 244.507812 185.078125 L 245.660156 185.484375 L 247.261719 186.582031 L 246.269531 186.082031 L 245.597656 185.617188 L 245.898438 185.894531 L 244.144531 185.007812 L 241.691406 184.558594 L 240.996094 184.222656 L 241.292969 184.21875 M 257.960938 186.816406 L 257.96875 186.824219 L 257.980469 186.832031 L 257.972656 186.820312 L 257.960938 186.816406 M 255.25 186.449219 L 255.085938 186.464844 L 256.167969 187.316406 C 255.863281 187.027344 255.554688 186.738281 255.25 186.449219 M 254.488281 186.527344 L 255.019531 187.007812 L 255.546875 187.492188 C 255.144531 187.175781 254.746094 186.859375 254.34375 186.539062 L 254.488281 186.527344 M 217.425781 183.75 L 217.285156 183.851562 L 211.933594 186.269531 L 213.449219 186.300781 L 213.28125 186.71875 L 210.316406 187.339844 L 211.542969 186.445312 L 210.109375 187.09375 L 209.71875 187.464844 L 209.683594 187.472656 L 209.484375 187.578125 L 211.128906 186.253906 L 211.789062 186.265625 L 213.480469 185.039062 L 217.425781 183.75 M 206.609375 184.953125 L 206.070312 185.199219 L 205.53125 185.441406 C 204.394531 186.253906 203.257812 187.066406 202.121094 187.882812 L 204.296875 186.613281 L 206.609375 184.953125 M 202.121094 187.882812 L 200.980469 188.546875 L 200.683594 188.851562 L 200.695312 189.03125 L 201.179688 188.554688 L 202.121094 187.882812 M 250.859375 182.835938 L 258.855469 189.269531 L 258.90625 189.28125 L 255.328125 185.164062 L 250.859375 182.835938 M 208.289062 188.816406 L 207.816406 189.257812 L 207.347656 189.703125 C 207.242188 189.753906 207.136719 189.800781 207.03125 189.851562 L 207.355469 189.492188 L 208.289062 188.816406 M 200.695312 189.03125 L 200.03125 189.683594 L 199.363281 190.339844 C 199.820312 190.0625 200.277344 189.785156 200.738281 189.511719 C 200.722656 189.351562 200.710938 189.191406 200.695312 189.03125 M 201.53125 187.980469 L 199.492188 189.542969 L 198.335938 190.960938 L 199.035156 190.539062 L 200.683594 188.851562 L 200.671875 188.726562 L 200.980469 188.546875 L 201.53125 187.980469 M 203.40625 190.046875 L 202.703125 190.71875 L 201.996094 191.394531 L 202.769531 190.496094 L 203.40625 190.046875 M 257.980469 186.832031 L 263.917969 193.425781 C 262.996094 192.0625 262.074219 190.695312 261.152344 189.332031 L 257.980469 186.832031 M 246.699219 193.003906 L 246.886719 193.101562 L 247.074219 193.203125 L 247.710938 193.886719 L 247.40625 193.695312 L 246.699219 193.003906 M 201.476562 184.839844 L 198.675781 186.640625 L 192.261719 194.105469 L 197.394531 188.296875 L 202.082031 185.25 L 201.476562 184.839844 M 255.3125 194.472656 L 255.59375 194.691406 L 255.332031 194.507812 L 255.3125 194.472656 M 262.648438 193.582031 L 263.503906 194.746094 L 264.359375 195.90625 L 264.070312 195.21875 L 262.648438 193.582031 M 258.355469 191.699219 L 258.625 192.65625 L 258.617188 192.695312 L 258.390625 192.46875 L 259.472656 195.035156 L 260.445312 195.929688 L 258.355469 191.699219 M 198.359375 196.140625 L 198.269531 196.300781 L 198.257812 196.304688 L 198.257812 196.308594 L 198.359375 196.140625 M 248.542969 191.472656 L 251.132812 193.683594 L 253.722656 195.890625 L 254.019531 196.371094 L 249.71875 192.792969 L 248.542969 191.472656 M 257.566406 190.375 L 260.644531 194.867188 L 261.722656 196.421875 C 261.214844 195.21875 260.710938 194.015625 260.203125 192.8125 L 257.566406 190.375 M 261.300781 194.015625 L 263.066406 196.632812 L 262.425781 195.546875 L 261.300781 194.015625 M 260.515625 197.25 L 260.519531 197.253906 L 260.519531 197.257812 C 260.535156 197.269531 260.546875 197.285156 260.5625 197.296875 L 260.515625 197.25 M 254.324219 197.488281 L 254.347656 197.523438 L 254.371094 197.5625 L 254.332031 197.492188 L 254.324219 197.488281 M 204.894531 194.964844 L 204.574219 195.128906 C 203.578125 196.011719 202.585938 196.894531 201.589844 197.777344 C 202.484375 197.105469 203.382812 196.433594 204.277344 195.761719 L 204.894531 194.964844 M 231.0625 199.71875 L 230.910156 199.742188 L 230.757812 199.769531 L 230.8125 199.726562 C 230.898438 199.722656 230.980469 199.71875 231.0625 199.71875 M 234.453125 199.589844 L 233.785156 199.875 L 233.109375 199.640625 L 234.453125 199.589844 M 225.257812 200.171875 L 223.933594 200.898438 L 222.898438 201.066406 L 223.339844 200.496094 L 225.257812 200.171875 M 269.988281 194.472656 L 272.621094 201.933594 C 272.496094 201.382812 272.371094 200.832031 272.25 200.28125 L 269.988281 194.472656 M 259.050781 186.5625 L 263.683594 192.011719 L 266.382812 197.179688 L 268.160156 201.074219 L 268.816406 201.964844 L 268.851562 202.054688 L 268.460938 199.917969 L 264.589844 193.058594 L 259.050781 186.5625 M 220.964844 202.011719 L 220.523438 202.574219 L 220.5 202.589844 L 219.660156 203.375 L 220.964844 202.011719 M 205.558594 194.113281 L 204.894531 194.964844 L 206.246094 194.28125 L 204.277344 195.761719 L 203.265625 197.0625 L 202.597656 198.570312 L 199.121094 202.917969 L 197.765625 205.417969 L 198.179688 204.136719 L 202.433594 198.035156 L 197.695312 204.414062 L 201.054688 198.449219 L 203.550781 195.261719 L 205.558594 194.113281 M 266.820312 202.007812 L 266.960938 202.679688 L 268.386719 206.691406 L 267.945312 204.433594 L 267.015625 202.222656 L 266.820312 202.007812 M 253.4375 196.027344 L 254.277344 196.792969 L 257.761719 202.472656 L 258.316406 204.054688 L 254.371094 197.5625 L 259.109375 206.320312 L 259.359375 207.035156 L 257.226562 204.027344 L 254.261719 197.699219 L 253.382812 196.835938 L 254.324219 197.488281 L 253.4375 196.027344 M 268.386719 206.691406 L 268.414062 206.835938 L 268.445312 206.980469 L 268.734375 207.671875 C 268.621094 207.34375 268.503906 207.015625 268.386719 206.691406 M 267.304688 204.277344 L 267.515625 205.285156 L 267.730469 206.292969 L 268.652344 208.039062 C 268.582031 207.683594 268.515625 207.332031 268.445312 206.980469 L 267.304688 204.277344 M 197.535156 204.703125 L 197.113281 206.046875 L 196.695312 207.386719 C 196.546875 207.65625 196.398438 207.929688 196.25 208.199219 L 196.789062 206.027344 L 197.535156 204.703125 M 192.945312 208.105469 L 192.914062 208.226562 L 192.882812 208.34375 L 192.792969 208.507812 L 192.945312 208.105469 M 268.734375 207.671875 L 268.914062 208.175781 L 269.09375 208.675781 C 269.070312 208.566406 269.042969 208.453125 269.019531 208.34375 L 268.734375 207.671875 M 269.3125 210.125 L 269.273438 211.015625 L 269.382812 211.289062 C 269.359375 210.898438 269.335938 210.511719 269.3125 210.125 M 215.167969 211.597656 L 215.148438 211.664062 L 215.125 211.730469 C 215.121094 211.714844 215.121094 211.699219 215.117188 211.683594 C 215.132812 211.65625 215.152344 211.625 215.167969 211.597656 M 216.265625 209.757812 L 215.375 213.355469 L 215.25 212.546875 L 216.101562 210.03125 L 216.265625 209.757812 M 215.28125 209.71875 L 214.203125 213.929688 L 214.851562 210.410156 L 215.28125 209.71875 M 269.382812 211.289062 L 269.46875 212.757812 L 270.183594 214.480469 L 269.699219 212.097656 L 269.382812 211.289062 M 260.03125 209.621094 L 260.34375 211.101562 L 260.65625 212.578125 C 260.566406 212.339844 260.476562 212.101562 260.386719 211.863281 L 260.699219 215.117188 C 260.476562 213.285156 260.253906 211.453125 260.03125 209.621094 M 260.65625 207.945312 L 261.484375 210.566406 L 262.308594 213.1875 L 262.652344 215.40625 L 261.144531 209.890625 L 260.65625 207.945312 M 269.222656 212.164062 L 269.171875 213.320312 L 269.160156 214.210938 L 269.664062 216.085938 L 269.46875 212.757812 L 269.222656 212.164062 M 183.25 206.839844 L 183.226562 207.636719 L 183.199219 208.433594 C 183.257812 208.925781 183.316406 209.417969 183.375 209.910156 C 182.527344 212.289062 181.679688 214.664062 180.832031 217.042969 L 183.25 206.839844 M 272.621094 201.933594 L 274.4375 210.011719 L 275.359375 218.355469 L 274.699219 208.820312 L 273.910156 206.371094 L 273.78125 205.226562 L 272.621094 201.933594 M 227.335938 218.566406 L 227.332031 218.636719 L 227.328125 218.703125 L 227.320312 218.730469 C 227.328125 218.675781 227.332031 218.621094 227.335938 218.566406 M 261.535156 218.980469 L 261.558594 219.179688 L 261.582031 219.375 L 261.546875 219.652344 L 261.480469 219.292969 L 261.535156 218.980469 M 230.804688 219.320312 L 230.382812 220.484375 L 230.367188 220.070312 C 230.511719 219.820312 230.660156 219.570312 230.804688 219.320312 M 261.390625 219.796875 L 261.417969 220.761719 L 261.398438 220.910156 C 261.371094 220.675781 261.34375 220.445312 261.316406 220.210938 L 261.390625 219.796875 M 272.589844 217.183594 L 272.699219 221.222656 L 272.839844 219.503906 C 272.757812 218.730469 272.671875 217.957031 272.589844 217.183594 M 263.070312 218.089844 L 263.546875 221.191406 C 263.523438 221.488281 263.503906 221.785156 263.480469 222.082031 L 263.070312 218.089844 M 230.972656 221.890625 L 230.722656 222.324219 L 230.46875 222.761719 L 230.445312 222.148438 C 230.621094 222.0625 230.796875 221.976562 230.972656 221.890625 M 248.445312 222.601562 L 248.449219 222.625 L 248.457031 222.644531 L 248.375 222.855469 C 248.398438 222.769531 248.421875 222.683594 248.445312 222.601562 M 261.1875 220.914062 L 261.351562 221.316406 L 261.140625 223.109375 C 261.113281 222.804688 261.085938 222.503906 261.054688 222.199219 C 261.050781 222.039062 261.046875 221.875 261.042969 221.714844 L 261.1875 220.914062 M 261.785156 222.382812 L 261.90625 222.679688 L 261.921875 222.890625 L 261.757812 223.847656 L 261.703125 223.398438 L 261.808594 222.992188 C 261.800781 222.789062 261.792969 222.585938 261.785156 222.382812 M 229.75 221.933594 L 230.136719 222.183594 L 230.238281 223.160156 L 229.390625 224.613281 L 229.75 221.933594 M 271.972656 222.183594 L 271.882812 222.773438 L 271.789062 223.367188 C 271.710938 224.320312 271.628906 225.273438 271.546875 226.226562 C 271.726562 225.667969 271.902344 225.113281 272.078125 224.554688 L 271.972656 222.183594 M 260.046875 226.773438 L 260.046875 226.785156 C 260.042969 226.792969 260.042969 226.800781 260.039062 226.808594 C 260.042969 226.796875 260.046875 226.785156 260.046875 226.773438 M 261.515625 224.128906 L 261.574219 226.261719 L 261.636719 228.390625 C 261.527344 227.234375 261.417969 226.074219 261.3125 224.917969 C 261.378906 224.65625 261.445312 224.394531 261.515625 224.128906 M 212.355469 231.136719 L 212.4375 231.453125 L 212.523438 231.769531 C 212.492188 231.75 212.460938 231.726562 212.429688 231.707031 C 212.40625 231.515625 212.378906 231.328125 212.355469 231.136719 M 213.523438 232.246094 L 213.679688 232.46875 L 213.832031 232.691406 L 213.574219 232.507812 C 213.554688 232.417969 213.539062 232.332031 213.523438 232.246094 M 273.914062 220.589844 L 273.203125 221.984375 L 272.8125 225.542969 L 272.859375 227.25 L 272.511719 228.296875 L 272.351562 229.792969 L 271.902344 233.066406 L 273.027344 229.71875 L 273.703125 228.957031 L 273.914062 220.589844 M 183.738281 216.648438 L 182.839844 222.648438 L 182.910156 224.941406 L 184.960938 233.367188 L 184.121094 228.46875 L 183.351562 223.210938 L 183.738281 216.648438 M 211.046875 231.996094 L 211.445312 232.488281 L 211.753906 233.449219 L 211.464844 233.25 L 211.046875 231.996094 M 212.738281 234.109375 L 212.753906 234.125 L 212.769531 234.144531 L 212.742188 234.125 L 212.738281 234.109375 M 212.617188 233.167969 L 212.972656 233.492188 L 213.226562 234.460938 L 212.90625 234.238281 L 212.722656 233.980469 L 212.617188 233.167969 M 214.652344 235.023438 L 214.816406 235.171875 L 215.039062 235.703125 L 214.9375 235.632812 L 214.652344 235.023438 M 193.234375 235.703125 L 193.242188 235.71875 L 193.242188 235.730469 L 193.234375 235.703125 M 183.574219 231.316406 L 184.761719 233.96875 L 185.953125 236.625 C 185.960938 236.636719 185.972656 236.644531 185.984375 236.65625 L 183.574219 231.316406 M 267.925781 230.71875 L 267.453125 231.886719 L 265.925781 235.117188 L 265.4375 236.742188 L 266.089844 236.925781 L 267.925781 230.71875 M 256.4375 234.886719 L 256.113281 235.625 L 255.792969 236.363281 L 254.863281 238.015625 C 255.386719 236.972656 255.910156 235.929688 256.4375 234.886719 M 272.699219 221.222656 L 272.003906 229.601562 L 270.464844 233.667969 L 268.757812 238.597656 L 269.445312 237.570312 L 272.511719 228.296875 L 272.8125 225.542969 L 272.699219 221.222656 M 193.476562 234.910156 L 194.589844 236.992188 L 195.707031 239.078125 C 195.472656 238.78125 195.238281 238.484375 195.007812 238.1875 L 193.476562 234.910156 M 212.921875 239.347656 L 214.8125 241.109375 L 214.457031 241.078125 L 213.363281 240.074219 L 212.921875 239.347656 M 212.40625 236.078125 L 212.648438 236.195312 L 213.296875 238.191406 L 215.648438 241.183594 L 215.429688 241.164062 L 213.359375 238.949219 L 212.40625 236.078125 M 215.21875 240.433594 L 215.652344 240.855469 L 215.925781 241.207031 L 215.796875 241.199219 L 215.21875 240.433594 M 221.023438 241.195312 L 221.816406 241.613281 L 221.347656 241.6875 L 221.023438 241.195312 M 216.28125 241.691406 L 216.289062 241.695312 L 216.300781 241.695312 L 216.316406 241.714844 L 216.316406 241.71875 L 216.28125 241.691406 M 268.757812 238.597656 L 268.261719 239.34375 L 267.761719 240.089844 C 267.671875 240.8125 267.582031 241.539062 267.492188 242.261719 C 267.914062 241.039062 268.335938 239.820312 268.757812 238.597656 M 222.484375 242.164062 L 222.742188 242.472656 L 222.59375 242.484375 L 221.753906 242.304688 L 221.75 242.300781 L 222.484375 242.164062 M 195.707031 241.183594 L 195.988281 241.535156 L 196.597656 242.878906 L 195.707031 241.183594 M 263.351562 237.160156 L 259.941406 243 L 259.597656 243.167969 L 260.238281 241.871094 L 263.351562 237.160156 M 217.859375 243.949219 L 218.511719 244.550781 L 219.011719 245.203125 L 218.925781 245.175781 L 218.46875 244.757812 L 217.859375 243.949219 M 262.835938 245.28125 L 262.742188 245.421875 C 262.753906 245.414062 262.761719 245.402344 262.773438 245.394531 L 262.835938 245.28125 M 198.722656 245.183594 L 198.882812 245.296875 L 199.046875 245.410156 L 199.082031 245.453125 C 198.960938 245.363281 198.839844 245.273438 198.722656 245.183594 M 259.28125 246.828125 L 258.933594 247.226562 L 258.886719 247.253906 L 258.855469 247.195312 L 259.28125 246.828125 M 267.085938 237.25 L 262.835938 245.28125 L 265.691406 240.910156 L 264.464844 243.933594 L 262.773438 245.394531 L 262 246.855469 L 261.527344 247.277344 L 262.742188 245.421875 L 262.296875 245.804688 L 267.085938 237.25 M 255.769531 248.441406 L 255.417969 248.894531 C 255.410156 248.898438 255.398438 248.90625 255.390625 248.910156 L 255.769531 248.441406 M 203.921875 249.074219 L 204.53125 249.378906 L 204.613281 249.464844 L 204.042969 249.164062 L 203.921875 249.074219 M 256 249.660156 L 254.945312 250.699219 C 254.859375 250.726562 254.777344 250.753906 254.695312 250.78125 C 255.128906 250.40625 255.566406 250.035156 256 249.660156 M 205.011719 250.695312 L 206.664062 251.726562 L 206.707031 251.777344 L 205.019531 250.707031 L 205.011719 250.695312 M 244.847656 252.285156 L 241.289062 254.148438 L 242.617188 253.363281 L 244.847656 252.285156 M 260.953125 244.917969 L 259.949219 246.066406 L 260.367188 245.34375 L 258.703125 246.925781 L 258.390625 246.363281 L 258.289062 246.460938 L 258.234375 247.035156 L 256.730469 248.804688 L 254.636719 250.804688 L 253.574219 251.15625 L 253.390625 251.386719 L 253.558594 251.160156 L 252.824219 251.40625 L 251.277344 252.421875 L 248.792969 254.40625 L 252.3125 252.835938 L 254.273438 251.148438 L 253.722656 251.671875 L 257.878906 248.429688 L 256.183594 250.367188 L 257.203125 249.667969 L 255.675781 251.5 L 259.132812 247.453125 L 259.683594 247.027344 L 261.070312 245.25 L 260.953125 244.917969 M 274.699219 234.757812 L 270.554688 244.023438 L 268.480469 247.402344 L 268.335938 249.242188 L 263.0625 254.710938 L 264.511719 254.007812 L 270.234375 247.648438 L 273.449219 242.699219 L 272.054688 244.171875 L 274.699219 234.757812 M 247.316406 253.683594 L 247.078125 253.910156 L 245.433594 254.734375 L 245.066406 254.757812 L 247.316406 253.683594 M 191.039062 250.285156 L 191.269531 251.078125 L 191.503906 251.867188 L 195.277344 255.222656 C 195.183594 255.003906 195.089844 254.785156 195 254.5625 C 193.679688 253.136719 192.359375 251.710938 191.039062 250.285156 M 238.019531 254.980469 L 239.257812 255.324219 L 238.5 255.640625 L 237.875 255.484375 L 237.121094 255.492188 L 236.832031 255.402344 L 238.019531 254.980469 M 211.023438 256.503906 L 211.042969 256.515625 L 211.066406 256.523438 L 211.066406 256.527344 L 211.066406 256.523438 L 211.023438 256.503906 M 242.441406 256.234375 L 240.84375 257.035156 L 239.066406 257.011719 L 239.679688 256.804688 L 242.441406 256.234375 M 234.703125 256.453125 L 236.003906 256.621094 L 234.234375 257.054688 L 232.476562 256.933594 L 233.601562 256.539062 L 234.703125 256.453125 M 262.441406 251.761719 L 261.875 252.042969 L 261.304688 252.324219 L 254.988281 258.179688 C 257.472656 256.039062 259.957031 253.902344 262.441406 251.761719 M 274.566406 244.296875 L 270.457031 249.828125 L 262.261719 258.222656 L 268.820312 252.445312 L 274.566406 244.296875 M 234.964844 258.421875 L 234.984375 258.421875 L 235 258.425781 C 234.980469 258.425781 234.964844 258.425781 234.949219 258.429688 L 234.964844 258.421875 M 262.261719 258.222656 L 262.085938 258.375 L 261.910156 258.53125 C 261.945312 258.507812 261.984375 258.488281 262.019531 258.464844 C 262.101562 258.382812 262.179688 258.304688 262.261719 258.222656 M 185.984375 236.65625 L 187.96875 241.050781 L 194.839844 250.050781 L 200.1875 255.0625 L 204.890625 258.132812 L 206.859375 258.726562 L 203.445312 256.402344 L 200.53125 253.71875 L 197.835938 252.074219 L 190.222656 243.195312 L 186.320312 236.992188 L 185.984375 236.65625 M 210.601562 255.988281 L 211.066406 256.523438 L 212.992188 257.367188 L 212.921875 257.347656 L 211.066406 256.523438 L 211.089844 256.550781 L 212.335938 257.175781 L 211.394531 256.902344 L 211.691406 257.246094 L 216.003906 258.902344 L 216.640625 258.992188 L 215.316406 258.40625 L 215.355469 258.398438 L 216.742188 259.003906 L 217.113281 259.054688 L 215.8125 258.34375 L 216.191406 258.296875 L 215.207031 258.011719 L 214.304688 257.515625 L 210.601562 255.988281 M 221.804688 259.683594 L 221.859375 259.703125 L 221.75 259.6875 C 221.765625 259.6875 221.785156 259.683594 221.804688 259.683594 M 221.882812 259.679688 L 229.105469 259.902344 L 229.574219 259.949219 L 225.078125 260.140625 L 222.277344 259.757812 L 221.863281 259.683594 L 221.882812 259.679688 M 202.648438 251.910156 L 210.210938 256.558594 L 211.394531 256.902344 L 211.089844 256.550781 L 206.996094 254.5 L 210.601562 255.988281 L 209.777344 255.035156 L 214.304688 257.515625 L 216.191406 258.296875 L 220.285156 259.488281 L 217.113281 259.054688 L 218.121094 259.609375 L 216.742188 259.003906 L 216.640625 258.992188 L 219.355469 260.191406 L 216.003906 258.902344 L 214.277344 258.667969 L 206.238281 254.628906 L 202.648438 251.910156 M 250.160156 258.085938 L 246.214844 259.902344 L 246.019531 260.28125 L 242.753906 260.796875 L 243.816406 260.078125 L 246.320312 259.328125 L 246.839844 259.027344 L 250.160156 258.085938 M 255.128906 259.773438 L 250.160156 261.820312 L 251.769531 261.363281 C 252.890625 260.835938 254.007812 260.304688 255.128906 259.773438 M 220.199219 260.515625 L 231.148438 262.632812 L 234.378906 263.101562 L 231.894531 263.449219 L 223.222656 261.679688 L 220.199219 260.515625 M 261.910156 258.53125 L 257.449219 261.089844 L 252.992188 263.648438 L 259.609375 260.554688 L 261.910156 258.53125 M 224.195312 177.40625 L 217.570312 180.003906 C 217.375 179.789062 214.605469 180.808594 209.257812 183.054688 L 206.609375 184.953125 L 208.972656 183.890625 C 205.113281 186.027344 202.738281 187.523438 201.839844 188.375 L 194.765625 195.878906 L 199.363281 190.339844 L 196.882812 192.746094 L 198.335938 190.960938 L 197.164062 191.328125 L 203.234375 186.234375 L 201.53125 187.980469 L 203.863281 186.191406 C 204.589844 186.113281 206.089844 185.191406 208.355469 183.417969 L 206.316406 184.238281 L 207.171875 183.046875 L 202.730469 185.96875 L 195.929688 192.339844 L 190.605469 199.734375 L 186.007812 211.152344 L 189.105469 201.648438 L 188.585938 201.5625 L 187.269531 204.164062 L 185.285156 211.4375 L 183.957031 220.664062 L 184.964844 230.535156 L 189.109375 239.550781 L 194.789062 247.75 L 202.011719 254.492188 L 210.621094 259.695312 L 220.183594 262.789062 L 229.914062 263.660156 C 226.96875 263.835938 223.503906 263.789062 219.523438 263.523438 L 230.03125 264.238281 L 238.898438 263.523438 L 240.433594 262.738281 L 252.703125 258.710938 L 261.304688 252.324219 L 268.085938 246.046875 L 271.605469 238.703125 L 263.527344 248.613281 L 256.339844 255.085938 L 254.421875 255.4375 L 259.78125 251.71875 L 263.636719 248.039062 C 264.050781 247.105469 264.113281 246.648438 263.816406 246.667969 L 262.78125 247.542969 L 267.761719 240.089844 L 270.945312 231.5625 L 271.863281 227.421875 L 271.417969 227.742188 L 271.546875 226.226562 L 271.152344 227.476562 L 271.789062 223.367188 L 271.945312 221.535156 L 271.972656 222.183594 L 272.320312 219.957031 C 272.054688 218.394531 271.957031 215.746094 272.03125 212.011719 L 272.589844 217.183594 L 272.464844 212.488281 L 271.894531 210.738281 L 271.910156 210.894531 L 268.851562 202.054688 L 269.007812 202.921875 L 268.160156 201.074219 L 264.359375 195.90625 L 267.015625 202.222656 L 267.644531 202.910156 L 269.019531 208.34375 L 271.554688 213.917969 L 271.6875 215.777344 L 271.011719 217.144531 L 270.566406 222.847656 C 270.65625 219.796875 270.355469 217.539062 269.664062 216.085938 L 269.84375 219.199219 L 268.570312 228.53125 L 267.925781 230.71875 L 269.632812 226.484375 L 266.625 235.921875 L 267.328125 234.851562 L 270.507812 223.589844 L 270.382812 225.160156 L 267.625 234.933594 L 262.703125 244.515625 L 263.933594 241.589844 L 261.070312 245.25 L 261.277344 245.824219 L 259.683594 247.027344 L 257.234375 250.160156 C 255.851562 251.488281 255.097656 252.019531 254.964844 251.757812 L 256.183594 250.367188 L 249.582031 254.886719 L 246.949219 255.664062 L 253.253906 250.839844 C 253.726562 250.6875 254.097656 250.4375 254.367188 250.09375 L 253.574219 251.15625 L 254.632812 249.847656 L 258.289062 246.460938 L 258.3125 246.222656 L 258.390625 246.363281 L 261.371094 243.605469 L 260.367188 245.34375 C 260.585938 245.339844 261.148438 244.777344 262.058594 243.65625 L 265.257812 236.878906 L 264.347656 238.457031 C 265.15625 237.683594 266.453125 234.007812 268.230469 227.425781 L 269.0625 222.148438 L 269.160156 214.210938 L 267.824219 209.21875 C 268.363281 210.085938 268.828125 211.070312 269.222656 212.164062 L 269.273438 211.015625 L 265.855469 202.375 L 264.25 200.878906 L 260.34375 195.511719 L 261.082031 198.351562 L 260.332031 197.078125 C 260.25 196.972656 260.3125 197.03125 260.515625 197.25 C 260.359375 197.140625 260.007812 196.402344 259.472656 195.035156 C 258.128906 194.082031 256.609375 192.410156 254.914062 190.023438 L 250.03125 186.207031 L 250.25 185.992188 L 245.667969 183.40625 L 245.332031 183.835938 L 243.476562 183.445312 L 234.507812 180.960938 L 233.820312 180.578125 L 231.1875 180.234375 L 225.550781 181 L 229.988281 180.078125 L 226.617188 179.636719 L 230.421875 179.117188 C 232.804688 179.886719 234.066406 180.109375 234.214844 179.789062 L 230.699219 179.078125 L 231.953125 178.90625 L 243.785156 181.652344 L 254.800781 187.824219 L 257.566406 190.375 L 257.316406 189.363281 L 261.300781 194.015625 L 259.09375 190.738281 L 260.15625 191.710938 C 261.488281 194.269531 263.183594 196.828125 265.238281 199.386719 L 267.300781 204.277344 L 266.960938 202.679688 L 265.902344 199.695312 L 260.695312 191.335938 L 262.648438 193.582031 L 259.496094 189.410156 C 258.734375 189.078125 258.710938 189.234375 259.429688 189.878906 L 256.167969 187.316406 L 259.625 190.578125 L 258.332031 189.699219 L 254.511719 186.523438 L 255.085938 186.464844 L 251 183.253906 L 239.144531 178.132812 L 224.195312 177.40625 M 250.160156 261.820312 L 240.976562 264.429688 L 237.707031 265.335938 L 237.6875 265.570312 L 245.789062 264.394531 L 243.804688 264.441406 L 250.160156 261.820312 M 215.648438 262.640625 L 215.53125 262.847656 L 215.414062 263.050781 L 225.230469 265.972656 L 226.230469 265.78125 L 215.648438 262.640625 M 219.058594 174.710938 L 215.152344 175.074219 L 207.171875 178.519531 L 198.492188 183.890625 L 196.492188 184.667969 L 189.449219 192.71875 L 192.125 188.859375 C 189.101562 192.253906 187.023438 194.902344 185.894531 196.808594 L 182.699219 204.929688 L 179.796875 216.160156 L 179.269531 227.835938 L 180.863281 232.289062 L 181.183594 231.789062 L 180.761719 228.9375 L 183.328125 235.851562 L 187.636719 243.488281 L 193.6875 251.800781 C 188.269531 245.011719 185.210938 240.933594 184.507812 239.570312 L 190.371094 248.390625 L 196.847656 255.210938 C 199.480469 256.871094 202.132812 258.695312 204.804688 260.691406 L 212.394531 263.964844 L 221.90625 266.535156 L 223.847656 266.707031 L 218.003906 265.269531 L 207.785156 261.695312 L 198.285156 255.46875 L 190.953125 247.914062 L 190.03125 246.40625 L 197.714844 254.535156 L 205.59375 259.789062 L 199.484375 255.496094 L 192.097656 248.457031 L 188.144531 242.753906 L 183.167969 233.40625 L 181.394531 221.535156 L 182.808594 213.316406 L 184.535156 206.53125 L 189.644531 195.621094 L 191.589844 193.28125 L 186.085938 203.257812 L 183.699219 210.25 L 186.785156 203.835938 L 186.132812 204.3125 L 190.289062 195.738281 L 198.449219 186.261719 L 205.980469 181.882812 L 215.167969 177.679688 L 206.835938 180.816406 L 214.511719 177.570312 L 223.441406 175.777344 L 232.78125 176.308594 L 233.191406 176.027344 L 237.988281 177.09375 L 233.554688 175.597656 L 224.78125 174.980469 C 217.808594 175.699219 213.820312 176.257812 212.816406 176.65625 L 219.058594 174.710938 M 247.304688 266.640625 L 246.265625 266.8125 L 234.980469 268.308594 L 224.824219 268.8125 L 237.09375 268.546875 L 244.0625 267.335938 L 246.972656 266.976562 L 247.304688 266.640625 M 242.628906 269.023438 L 231.050781 270.167969 L 236.730469 269.96875 L 239.007812 269.839844 L 242.628906 269.023438 M 231.050781 270.167969 L 230.652344 270.183594 L 230.804688 270.191406 C 230.886719 270.183594 230.96875 270.175781 231.050781 270.167969 M 214.40625 268.746094 L 225.476562 270.363281 L 230.652344 270.183594 L 220.003906 269.46875 L 214.40625 268.746094 " fill-opacity="1" fill-rule="nonzero"/></g><g clip-path="url(#4225e6199b)"><path fill="#e7360d" d="M 132.710938 80.128906 L 130.269531 80.335938 L 127.824219 80.542969 L 128.664062 80.601562 L 132.710938 80.128906 M 138.382812 85.390625 L 138.097656 85.410156 L 138.15625 85.425781 L 138.382812 85.390625 M 137.039062 85.484375 L 133.871094 85.703125 L 135.070312 85.859375 L 137.273438 85.546875 L 137.039062 85.484375 M 129.421875 86.625 L 129.515625 86.636719 L 129.179688 86.683594 L 129.421875 86.625 M 125.546875 85.941406 L 124.078125 86.394531 L 122.609375 86.84375 L 123.457031 86.226562 L 125.546875 85.941406 M 126.316406 87.445312 L 126.265625 87.449219 L 126.214844 87.449219 L 125.855469 87.570312 C 126.007812 87.527344 126.164062 87.488281 126.316406 87.445312 M 134.269531 87.253906 L 137.523438 87.675781 L 137.664062 87.832031 L 134.273438 87.304688 L 130.871094 87.625 L 127.429688 87.421875 L 134.269531 87.253906 M 141.375 88.222656 L 141.417969 88.234375 L 141.460938 88.25 L 141.445312 88.25 C 141.421875 88.242188 141.398438 88.230469 141.375 88.222656 M 131.34375 79.457031 L 140.667969 81.65625 L 145.589844 82.367188 L 151.304688 84.988281 L 158.167969 88.511719 L 149.703125 83.386719 L 147.15625 82.320312 L 138.925781 79.835938 L 131.34375 79.457031 M 141.8125 88.414062 L 142.15625 88.496094 L 142.3125 88.550781 L 142.019531 88.507812 L 141.8125 88.414062 M 138.15625 85.425781 L 137.273438 85.546875 L 149.046875 88.742188 L 148.570312 88.476562 L 141.949219 86.1875 L 138.15625 85.425781 M 129.070312 86.578125 L 129.40625 86.621094 L 129.160156 86.6875 L 128.734375 86.746094 L 123.578125 88.050781 L 129.078125 86.710938 L 126.316406 87.445312 L 127.167969 87.425781 L 124.304688 88.238281 L 123.804688 88.285156 L 123.363281 88.484375 L 123.066406 88.507812 L 125.855469 87.570312 L 122.582031 88.445312 L 122.410156 88.570312 L 120.066406 88.78125 L 120.632812 88.527344 L 129.070312 86.578125 M 122 88.867188 L 121.976562 88.886719 L 121.949219 88.90625 C 121.828125 88.941406 121.703125 88.972656 121.582031 89.007812 C 121.722656 88.960938 121.863281 88.914062 122 88.867188 M 149.046875 88.742188 L 149.296875 88.886719 L 149.550781 89.027344 L 149.644531 88.90625 L 149.046875 88.742188 M 131.953125 81.683594 L 121.710938 84.453125 L 112.890625 88.578125 L 112.242188 89.042969 L 113.140625 88.679688 L 113.550781 88.386719 L 122.640625 84.285156 L 131.847656 81.890625 L 131.953125 81.683594 M 117.402344 85.292969 L 114.886719 85.589844 L 107.953125 89.289062 L 115.902344 85.644531 L 109.320312 88.980469 L 117.402344 85.292969 M 115.316406 88.582031 L 114.574219 89.371094 L 112.796875 89.945312 C 113.636719 89.492188 114.476562 89.035156 115.316406 88.582031 M 119.230469 89.800781 L 117.613281 90.480469 L 117.953125 90.230469 L 119.230469 89.800781 M 147.617188 90.425781 L 147.820312 90.53125 L 148.027344 90.632812 C 148.148438 90.65625 148.269531 90.675781 148.390625 90.699219 C 148.132812 90.609375 147.875 90.519531 147.617188 90.425781 M 150.855469 91.09375 L 152.5 91.457031 L 151.007812 91.183594 L 150.855469 91.09375 M 115.671875 91.890625 L 115.550781 91.980469 L 115.425781 92.070312 C 115.554688 92.011719 115.6875 91.953125 115.816406 91.894531 C 115.769531 91.894531 115.722656 91.890625 115.671875 91.890625 M 145.175781 89.84375 L 147.273438 90.304688 L 147.617188 90.425781 L 147.457031 90.347656 L 148.894531 90.664062 L 149.15625 90.839844 L 148.390625 90.699219 L 149.542969 91.109375 L 151.144531 92.207031 L 150.15625 91.707031 L 149.480469 91.242188 L 149.78125 91.519531 L 148.027344 90.632812 L 145.574219 90.183594 L 144.878906 89.84375 L 145.175781 89.84375 M 161.84375 92.4375 L 161.851562 92.445312 L 161.863281 92.453125 L 161.855469 92.445312 L 161.84375 92.4375 M 159.132812 92.070312 L 158.96875 92.085938 L 160.050781 92.9375 C 159.746094 92.648438 159.4375 92.359375 159.132812 92.070312 M 158.371094 92.148438 L 158.902344 92.632812 L 159.429688 93.117188 C 159.027344 92.800781 158.628906 92.480469 158.226562 92.164062 L 158.371094 92.148438 M 121.308594 89.375 L 121.167969 89.476562 L 115.816406 91.894531 L 117.332031 91.925781 L 117.164062 92.339844 L 114.199219 92.960938 L 115.425781 92.070312 L 113.996094 92.71875 L 113.601562 93.089844 L 113.566406 93.09375 L 113.371094 93.203125 L 115.011719 91.878906 L 115.671875 91.890625 L 117.363281 90.660156 L 121.308594 89.375 M 110.492188 90.578125 L 109.414062 91.0625 C 108.277344 91.878906 107.140625 92.691406 106.003906 93.503906 L 108.179688 92.238281 L 110.492188 90.578125 M 106.003906 93.503906 L 104.863281 94.167969 L 104.566406 94.472656 L 104.582031 94.652344 L 105.0625 94.179688 L 106.003906 93.503906 M 154.742188 88.457031 L 162.738281 94.890625 L 162.789062 94.902344 L 159.210938 90.785156 L 154.742188 88.457031 M 112.171875 94.4375 L 111.699219 94.882812 L 111.230469 95.328125 C 111.125 95.375 111.019531 95.425781 110.914062 95.476562 L 111.238281 95.117188 L 112.171875 94.4375 M 104.582031 94.652344 L 103.246094 95.964844 C 103.703125 95.6875 104.164062 95.410156 104.621094 95.132812 C 104.605469 94.972656 104.59375 94.8125 104.582031 94.652344 M 105.414062 93.605469 L 103.375 95.167969 L 102.222656 96.585938 L 102.921875 96.160156 L 104.566406 94.472656 L 104.554688 94.347656 L 104.863281 94.167969 L 105.414062 93.605469 M 107.289062 95.671875 L 106.585938 96.34375 L 105.878906 97.019531 L 106.652344 96.121094 L 107.289062 95.671875 M 161.863281 92.453125 L 167.800781 99.046875 C 166.878906 97.683594 165.957031 96.320312 165.035156 94.957031 L 161.863281 92.453125 M 150.582031 98.628906 L 150.957031 98.824219 L 151.59375 99.507812 L 151.292969 99.316406 L 150.582031 98.628906 M 105.359375 90.460938 L 102.558594 92.261719 L 96.144531 99.730469 L 101.277344 93.921875 L 105.964844 90.871094 L 105.359375 90.460938 M 159.195312 100.097656 L 159.476562 100.316406 L 159.214844 100.132812 L 159.195312 100.097656 M 166.53125 99.207031 L 167.386719 100.367188 L 168.242188 101.53125 L 167.953125 100.839844 L 166.53125 99.207031 M 162.238281 97.324219 L 162.507812 98.28125 L 162.5 98.320312 L 162.273438 98.09375 L 163.355469 100.660156 L 164.328125 101.554688 L 162.238281 97.324219 M 102.242188 101.765625 L 102.152344 101.925781 L 102.140625 101.929688 L 102.242188 101.765625 M 152.425781 97.097656 L 155.015625 99.304688 L 157.605469 101.515625 L 157.902344 101.996094 L 153.601562 98.417969 L 152.425781 97.097656 M 161.449219 96 L 164.527344 100.492188 L 165.605469 102.046875 C 165.097656 100.839844 164.59375 99.636719 164.085938 98.433594 L 161.449219 96 M 165.183594 99.636719 L 166.066406 100.949219 L 166.949219 102.257812 L 166.308594 101.171875 L 165.183594 99.636719 M 164.402344 102.875 L 164.402344 102.878906 L 164.40625 102.882812 C 164.417969 102.894531 164.429688 102.90625 164.445312 102.921875 L 164.402344 102.875 M 158.207031 103.109375 L 158.230469 103.148438 L 158.253906 103.183594 L 158.214844 103.117188 L 158.207031 103.109375 M 108.777344 100.589844 L 108.617188 100.671875 L 108.457031 100.75 C 107.460938 101.636719 106.46875 102.519531 105.472656 103.402344 C 106.367188 102.730469 107.265625 102.058594 108.160156 101.386719 L 108.777344 100.589844 M 134.945312 105.339844 L 134.792969 105.367188 L 134.640625 105.390625 L 134.695312 105.351562 C 134.78125 105.347656 134.863281 105.34375 134.945312 105.339844 M 138.335938 105.214844 L 137.667969 105.5 L 136.996094 105.265625 L 138.335938 105.214844 M 129.140625 105.796875 L 127.816406 106.519531 L 126.785156 106.691406 L 127.222656 106.117188 L 129.140625 105.796875 M 173.871094 100.097656 L 175.1875 103.828125 L 176.503906 107.554688 C 176.378906 107.003906 176.253906 106.457031 176.132812 105.90625 L 173.871094 100.097656 M 162.933594 92.1875 L 167.566406 97.632812 L 170.265625 102.800781 L 172.042969 106.695312 L 172.699219 107.589844 L 172.734375 107.679688 L 172.347656 105.539062 L 168.472656 98.683594 L 162.933594 92.1875 M 124.847656 107.636719 L 124.410156 108.195312 L 124.382812 108.214844 L 123.542969 108.996094 L 124.847656 107.636719 M 109.441406 99.734375 L 108.777344 100.589844 L 110.132812 99.90625 L 108.160156 101.386719 L 107.148438 102.6875 L 106.480469 104.195312 L 103.003906 108.542969 L 101.648438 111.039062 L 102.0625 109.761719 L 106.316406 103.660156 L 101.578125 110.039062 L 104.9375 104.074219 L 107.4375 100.886719 L 109.441406 99.734375 M 170.703125 107.632812 L 170.847656 108.304688 L 172.269531 112.3125 L 171.828125 110.054688 L 170.898438 107.84375 L 170.703125 107.632812 M 157.320312 101.648438 L 158.160156 102.417969 L 161.644531 108.09375 L 162.199219 109.679688 L 158.253906 103.183594 L 162.992188 111.941406 L 163.242188 112.65625 L 161.109375 109.652344 L 158.144531 103.324219 L 157.265625 102.457031 L 158.207031 103.109375 L 157.320312 101.648438 M 172.269531 112.3125 L 172.300781 112.457031 L 172.328125 112.605469 L 172.621094 113.292969 C 172.503906 112.96875 172.386719 112.640625 172.269531 112.3125 M 171.1875 109.902344 L 171.402344 110.910156 L 171.613281 111.917969 L 172.535156 113.660156 C 172.464844 113.308594 172.398438 112.957031 172.328125 112.605469 L 171.1875 109.902344 M 101.417969 110.328125 L 100.996094 111.667969 L 100.578125 113.011719 C 100.429688 113.28125 100.28125 113.554688 100.132812 113.824219 L 100.671875 111.648438 L 101.417969 110.328125 M 96.828125 113.730469 L 96.796875 113.847656 L 96.765625 113.96875 L 96.675781 114.132812 L 96.828125 113.730469 M 172.617188 113.292969 L 172.976562 114.300781 C 172.953125 114.1875 172.925781 114.078125 172.902344 113.964844 L 172.617188 113.292969 M 173.195312 115.746094 L 173.175781 116.191406 L 173.15625 116.640625 L 173.265625 116.910156 C 173.242188 116.523438 173.21875 116.136719 173.195312 115.746094 M 119.050781 117.222656 L 119.03125 117.285156 L 119.007812 117.351562 C 119.003906 117.335938 119.003906 117.320312 119 117.308594 C 119.019531 117.277344 119.035156 117.25 119.050781 117.222656 M 120.148438 115.378906 L 119.257812 118.980469 L 119.132812 118.171875 L 119.984375 115.652344 L 120.148438 115.378906 M 119.164062 115.34375 L 118.625 117.449219 L 118.085938 119.550781 L 118.734375 116.03125 L 119.164062 115.34375 M 173.265625 116.910156 L 173.351562 118.378906 L 174.066406 120.105469 L 173.585938 117.71875 L 173.265625 116.910156 M 163.914062 115.246094 L 164.226562 116.722656 L 164.539062 118.203125 C 164.449219 117.964844 164.359375 117.722656 164.269531 117.484375 L 164.582031 120.742188 C 164.359375 118.910156 164.136719 117.078125 163.914062 115.246094 M 164.539062 113.570312 L 165.367188 116.191406 L 166.191406 118.8125 L 166.535156 121.03125 L 165.027344 115.515625 L 164.539062 113.570312 M 173.105469 117.789062 L 173.054688 118.945312 L 173.042969 119.835938 L 173.546875 121.707031 L 173.351562 118.378906 L 173.105469 117.789062 M 87.132812 112.464844 L 87.109375 113.261719 L 87.082031 114.058594 C 87.140625 114.550781 87.199219 115.042969 87.257812 115.535156 C 86.410156 117.910156 85.5625 120.289062 84.714844 122.664062 L 87.132812 112.464844 M 176.503906 107.554688 L 178.320312 115.636719 L 179.242188 123.980469 L 178.582031 114.445312 L 177.792969 111.992188 L 177.664062 110.851562 L 176.503906 107.554688 M 131.21875 124.1875 L 131.210938 124.328125 L 131.203125 124.355469 C 131.210938 124.296875 131.214844 124.242188 131.21875 124.1875 M 165.421875 124.605469 L 165.441406 124.800781 L 165.464844 125 L 165.429688 125.277344 L 165.363281 124.917969 L 165.421875 124.605469 M 134.6875 124.945312 L 134.265625 126.109375 L 134.25 125.695312 C 134.394531 125.445312 134.542969 125.195312 134.6875 124.945312 M 165.273438 125.421875 L 165.300781 126.386719 L 165.285156 126.535156 C 165.253906 126.300781 165.226562 126.066406 165.199219 125.835938 L 165.273438 125.421875 M 176.472656 122.804688 L 176.582031 126.84375 L 176.722656 125.128906 C 176.640625 124.355469 176.554688 123.578125 176.472656 122.804688 M 166.953125 123.714844 L 167.191406 125.265625 L 167.429688 126.8125 C 167.410156 127.109375 167.386719 127.40625 167.363281 127.703125 L 166.953125 123.714844 M 134.855469 127.515625 L 134.605469 127.949219 L 134.351562 128.382812 L 134.328125 127.773438 C 134.503906 127.6875 134.679688 127.601562 134.855469 127.515625 M 152.328125 128.222656 L 152.332031 128.246094 L 152.339844 128.269531 L 152.257812 128.476562 C 152.28125 128.394531 152.304688 128.308594 152.328125 128.222656 M 165.070312 126.535156 L 165.234375 126.9375 L 165.023438 128.730469 C 164.996094 128.429688 164.96875 128.125 164.9375 127.824219 C 164.933594 127.660156 164.929688 127.5 164.925781 127.339844 L 165.070312 126.535156 M 165.667969 128.003906 L 165.789062 128.300781 L 165.804688 128.511719 L 165.640625 129.46875 L 165.585938 129.023438 L 165.691406 128.613281 C 165.683594 128.410156 165.675781 128.207031 165.667969 128.003906 M 133.632812 127.558594 L 134.019531 127.808594 L 134.121094 128.78125 L 133.273438 130.238281 L 133.632812 127.558594 M 175.855469 127.808594 L 175.765625 128.398438 L 175.671875 128.988281 C 175.59375 129.941406 175.511719 130.894531 175.429688 131.851562 C 175.609375 131.292969 175.785156 130.734375 175.964844 130.179688 L 175.855469 127.808594 M 163.933594 132.398438 L 163.929688 132.402344 L 163.929688 132.410156 C 163.929688 132.417969 163.925781 132.425781 163.921875 132.433594 C 163.925781 132.421875 163.929688 132.410156 163.933594 132.398438 M 165.398438 129.753906 L 165.457031 131.882812 L 165.519531 134.011719 C 165.410156 132.855469 165.300781 131.699219 165.195312 130.542969 C 165.261719 130.277344 165.328125 130.015625 165.398438 129.753906 M 116.238281 136.761719 L 116.320312 137.078125 L 116.40625 137.394531 C 116.375 137.371094 116.34375 137.351562 116.3125 137.328125 C 116.289062 137.140625 116.261719 136.949219 116.238281 136.761719 M 117.40625 137.867188 L 117.71875 138.3125 L 117.457031 138.132812 C 117.4375 138.042969 117.421875 137.957031 117.40625 137.867188 M 177.800781 126.210938 L 177.085938 127.609375 L 176.695312 131.164062 L 176.742188 132.875 L 176.398438 133.921875 L 176.234375 135.417969 L 175.785156 138.691406 L 176.910156 135.34375 L 177.585938 134.578125 L 177.800781 126.210938 M 87.621094 122.269531 L 86.722656 128.273438 L 86.792969 130.566406 L 88.84375 138.988281 L 88.003906 134.09375 L 87.234375 128.832031 L 87.621094 122.269531 M 114.933594 137.617188 L 115.328125 138.109375 L 115.640625 139.074219 L 115.347656 138.871094 L 114.933594 137.617188 M 116.621094 139.730469 L 116.652344 139.769531 L 116.625 139.75 L 116.621094 139.730469 M 116.5 138.792969 L 116.859375 139.117188 L 117.113281 140.082031 L 116.789062 139.863281 L 116.605469 139.605469 L 116.5 138.792969 M 118.535156 140.644531 L 118.617188 140.71875 L 118.699219 140.796875 L 118.921875 141.328125 L 118.820312 141.257812 L 118.535156 140.644531 M 97.117188 141.324219 L 97.125 141.34375 L 97.125 141.355469 L 97.117188 141.324219 M 87.457031 136.941406 L 88.644531 139.59375 L 89.835938 142.246094 C 89.84375 142.257812 89.855469 142.269531 89.867188 142.28125 L 87.457031 136.941406 M 171.808594 136.34375 L 171.335938 137.507812 L 169.808594 140.742188 L 169.320312 142.367188 L 169.972656 142.550781 L 171.808594 136.34375 M 160.320312 140.507812 L 159.996094 141.246094 L 159.675781 141.988281 L 158.746094 143.636719 C 159.269531 142.59375 159.792969 141.550781 160.320312 140.507812 M 176.582031 126.84375 L 175.886719 135.222656 L 174.347656 139.292969 L 172.640625 144.222656 L 173.332031 143.191406 L 176.398438 133.921875 L 176.695312 131.164062 L 176.582031 126.84375 M 97.359375 140.535156 L 98.472656 142.617188 L 99.589844 144.699219 C 99.355469 144.402344 99.121094 144.105469 98.890625 143.808594 L 97.359375 140.535156 M 116.804688 144.972656 L 118.695312 146.734375 L 118.339844 146.699219 L 117.246094 145.699219 L 116.804688 144.972656 M 116.289062 141.699219 L 116.53125 141.820312 L 117.179688 143.8125 L 119.53125 146.808594 L 119.3125 146.789062 L 117.242188 144.570312 L 116.289062 141.699219 M 119.101562 146.054688 L 119.535156 146.480469 L 119.808594 146.832031 L 119.679688 146.820312 L 119.101562 146.054688 M 124.90625 146.820312 L 125.699219 147.238281 L 125.230469 147.3125 L 124.90625 146.820312 M 120.164062 147.316406 L 120.175781 147.316406 L 120.183594 147.320312 L 120.199219 147.339844 L 120.164062 147.316406 M 172.640625 144.222656 L 172.144531 144.96875 L 171.644531 145.714844 C 171.554688 146.4375 171.464844 147.160156 171.375 147.886719 C 171.796875 146.664062 172.21875 145.441406 172.640625 144.222656 M 126.367188 147.785156 L 126.625 148.097656 L 126.476562 148.105469 L 125.636719 147.925781 L 125.632812 147.921875 L 126.367188 147.785156 M 99.589844 146.804688 L 99.871094 147.160156 L 100.480469 148.503906 L 99.589844 146.804688 M 167.234375 142.785156 L 163.824219 148.621094 L 163.480469 148.792969 L 164.121094 147.492188 L 167.234375 142.785156 M 121.742188 149.570312 L 122.394531 150.175781 L 122.894531 150.828125 L 122.808594 150.796875 L 122.351562 150.378906 L 121.742188 149.570312 M 166.71875 150.902344 L 166.671875 150.976562 L 166.625 151.046875 C 166.636719 151.035156 166.644531 151.027344 166.65625 151.019531 L 166.71875 150.902344 M 102.605469 150.808594 L 102.765625 150.917969 L 102.929688 151.03125 L 102.964844 151.078125 C 102.84375 150.988281 102.722656 150.898438 102.605469 150.808594 M 163.164062 152.453125 L 162.816406 152.847656 L 162.769531 152.875 L 162.738281 152.820312 L 163.164062 152.453125 M 170.96875 142.875 L 166.71875 150.902344 L 169.578125 146.53125 L 168.347656 149.558594 L 166.65625 151.019531 L 165.882812 152.476562 L 165.410156 152.902344 L 166.625 151.046875 L 166.179688 151.429688 L 170.96875 142.875 M 159.652344 154.0625 L 159.476562 154.292969 L 159.300781 154.519531 C 159.292969 154.523438 159.28125 154.527344 159.273438 154.53125 L 159.652344 154.0625 M 107.804688 154.695312 L 108.414062 155 L 108.496094 155.089844 L 107.929688 154.789062 L 107.804688 154.695312 M 159.882812 155.28125 L 159.355469 155.804688 L 158.828125 156.324219 C 158.746094 156.351562 158.660156 156.378906 158.578125 156.40625 C 159.011719 156.03125 159.449219 155.65625 159.882812 155.28125 M 108.894531 156.320312 L 110.546875 157.351562 L 110.589844 157.398438 L 108.902344 156.328125 L 108.894531 156.320312 M 148.730469 157.90625 L 145.171875 159.769531 L 146.5 158.984375 L 148.730469 157.90625 M 164.835938 150.542969 L 163.832031 151.6875 L 164.25 150.964844 L 162.585938 152.550781 L 162.273438 151.988281 L 162.171875 152.082031 L 162.117188 152.660156 L 160.613281 154.429688 L 158.519531 156.425781 L 157.457031 156.78125 L 157.273438 157.007812 L 157.441406 156.785156 L 156.707031 157.027344 L 155.160156 158.042969 L 152.675781 160.03125 L 156.195312 158.460938 L 158.15625 156.769531 L 157.605469 157.292969 L 161.761719 154.054688 L 160.066406 155.988281 L 161.085938 155.292969 L 159.558594 157.125 L 163.015625 153.078125 L 163.566406 152.648438 L 164.953125 150.875 L 164.835938 150.542969 M 178.582031 140.382812 L 174.441406 149.644531 L 172.363281 153.023438 L 172.21875 154.863281 L 166.949219 160.335938 L 168.394531 159.632812 L 174.121094 153.269531 L 177.332031 148.324219 L 175.9375 149.796875 L 178.582031 140.382812 M 151.199219 159.304688 L 150.960938 159.535156 L 149.316406 160.359375 L 148.949219 160.382812 L 151.199219 159.304688 M 94.921875 155.910156 L 95.152344 156.703125 L 95.386719 157.492188 L 99.160156 160.84375 C 99.066406 160.625 98.972656 160.40625 98.882812 160.1875 C 97.5625 158.761719 96.242188 157.335938 94.921875 155.910156 M 141.902344 160.605469 L 143.140625 160.949219 L 142.382812 161.265625 L 141.757812 161.105469 L 141.003906 161.113281 L 140.714844 161.023438 L 141.902344 160.605469 M 114.90625 162.128906 L 114.925781 162.140625 L 114.949219 162.148438 L 114.90625 162.128906 M 146.324219 161.859375 L 144.730469 162.65625 L 142.949219 162.636719 L 143.5625 162.425781 L 146.324219 161.859375 M 138.589844 162.078125 L 139.886719 162.246094 L 138.117188 162.675781 L 136.363281 162.558594 L 137.488281 162.160156 L 138.589844 162.078125 M 166.324219 157.386719 L 165.757812 157.667969 L 165.1875 157.949219 L 158.871094 163.800781 C 161.355469 161.664062 163.839844 159.523438 166.324219 157.386719 M 178.449219 149.921875 L 174.339844 155.453125 L 166.144531 163.84375 L 172.707031 158.070312 L 178.449219 149.921875 M 138.847656 164.046875 L 138.882812 164.046875 C 138.863281 164.050781 138.847656 164.050781 138.832031 164.050781 L 138.847656 164.046875 M 166.144531 163.84375 L 165.96875 164 L 165.792969 164.152344 C 165.828125 164.132812 165.867188 164.109375 165.90625 164.089844 C 165.984375 164.007812 166.0625 163.925781 166.144531 163.84375 M 89.867188 142.28125 L 91.851562 146.675781 L 98.722656 155.675781 L 104.070312 160.6875 L 108.773438 163.757812 L 110.742188 164.351562 L 107.328125 162.027344 L 104.414062 159.34375 L 101.722656 157.699219 L 94.105469 148.816406 L 90.203125 142.617188 L 89.867188 142.28125 M 114.484375 161.609375 L 114.949219 162.148438 L 116.875 162.988281 L 116.804688 162.96875 L 114.949219 162.148438 L 114.972656 162.175781 L 116.222656 162.800781 L 115.277344 162.523438 L 115.574219 162.871094 L 119.886719 164.527344 L 120.523438 164.613281 L 119.199219 164.027344 L 119.238281 164.023438 L 120.625 164.628906 L 120.996094 164.679688 L 119.699219 163.96875 L 120.074219 163.921875 L 119.089844 163.632812 L 118.1875 163.140625 L 114.484375 161.609375 M 125.6875 165.308594 L 125.742188 165.324219 L 125.632812 165.308594 C 125.652344 165.308594 125.667969 165.308594 125.6875 165.308594 M 125.765625 165.304688 L 132.988281 165.527344 L 133.457031 165.570312 L 128.960938 165.761719 L 126.160156 165.382812 L 125.746094 165.304688 L 125.765625 165.304688 M 106.53125 157.535156 L 114.09375 162.179688 L 115.277344 162.523438 L 114.972656 162.171875 L 110.878906 160.125 L 114.484375 161.609375 L 113.660156 160.65625 L 118.1875 163.140625 L 120.074219 163.921875 L 124.167969 165.109375 L 120.996094 164.679688 L 122.003906 165.230469 L 120.625 164.628906 L 120.523438 164.613281 L 123.238281 165.816406 L 119.886719 164.527344 L 118.160156 164.292969 L 110.121094 160.253906 L 106.53125 157.535156 M 154.042969 163.707031 L 150.097656 165.523438 L 149.902344 165.90625 L 146.636719 166.421875 L 147.699219 165.699219 L 150.203125 164.953125 L 150.722656 164.648438 L 154.042969 163.707031 M 159.011719 165.398438 L 154.042969 167.445312 L 155.652344 166.988281 C 156.773438 166.457031 157.890625 165.929688 159.011719 165.398438 M 124.082031 166.140625 L 135.03125 168.257812 L 138.261719 168.726562 L 135.777344 169.070312 L 127.105469 167.300781 L 124.082031 166.140625 M 165.792969 164.152344 L 161.332031 166.714844 L 156.875 169.273438 L 163.492188 166.179688 L 165.792969 164.152344 M 128.082031 83.027344 L 121.453125 85.625 C 121.257812 85.414062 118.488281 86.429688 113.140625 88.679688 L 110.492188 90.578125 L 112.855469 89.515625 C 108.996094 91.652344 106.621094 93.144531 105.722656 94 L 98.648438 101.503906 L 103.246094 95.964844 L 100.765625 98.371094 L 102.222656 96.585938 L 101.046875 96.953125 L 107.117188 91.855469 L 105.414062 93.605469 L 107.746094 91.8125 C 108.472656 91.738281 109.972656 90.8125 112.242188 89.042969 L 110.199219 89.863281 L 111.054688 88.667969 L 106.613281 91.59375 L 99.8125 97.964844 L 94.488281 105.359375 L 89.890625 116.777344 L 92.988281 107.273438 L 92.46875 107.1875 L 91.152344 109.785156 L 89.167969 117.0625 L 87.839844 126.289062 L 88.847656 136.160156 L 92.992188 145.171875 L 98.671875 153.371094 L 105.894531 160.113281 L 114.507812 165.320312 L 124.066406 168.414062 L 133.800781 169.28125 C 130.851562 169.457031 127.386719 169.414062 123.40625 169.144531 L 133.914062 169.863281 L 142.78125 169.148438 L 144.316406 168.359375 L 156.585938 164.332031 L 165.1875 157.949219 L 171.96875 151.667969 L 175.488281 144.324219 L 167.410156 154.234375 L 160.222656 160.710938 L 158.304688 161.0625 L 163.664062 157.34375 L 167.519531 153.664062 C 167.933594 152.726562 167.996094 152.269531 167.703125 152.292969 L 166.664062 153.167969 L 171.644531 145.714844 L 174.828125 137.1875 L 175.746094 133.046875 L 175.304688 133.367188 L 175.429688 131.851562 L 175.035156 133.097656 L 175.671875 128.988281 L 175.828125 127.160156 L 175.855469 127.808594 L 176.203125 125.582031 C 175.9375 124.019531 175.839844 121.371094 175.914062 117.636719 L 176.472656 122.804688 L 176.347656 118.113281 L 175.777344 116.363281 L 175.792969 116.519531 L 172.734375 107.679688 L 172.890625 108.546875 L 172.042969 106.695312 L 168.242188 101.53125 L 170.898438 107.84375 L 171.527344 108.535156 L 172.902344 113.964844 L 175.4375 119.542969 L 175.570312 121.402344 L 174.894531 122.765625 L 174.449219 128.472656 C 174.539062 125.417969 174.238281 123.164062 173.546875 121.707031 L 173.726562 124.824219 L 172.457031 134.152344 L 171.808594 136.34375 L 173.515625 132.109375 L 170.507812 141.546875 L 171.210938 140.472656 L 174.390625 129.214844 L 174.265625 130.785156 L 171.507812 140.558594 L 166.589844 150.140625 L 167.816406 147.210938 L 164.953125 150.875 L 165.160156 151.449219 L 163.566406 152.648438 L 161.117188 155.785156 C 159.734375 157.109375 158.980469 157.644531 158.847656 157.382812 L 160.066406 155.988281 L 153.464844 160.511719 L 150.832031 161.289062 L 157.136719 156.464844 C 157.609375 156.3125 157.980469 156.0625 158.25 155.71875 L 157.457031 156.78125 L 158.515625 155.472656 L 162.171875 152.082031 L 162.195312 151.847656 L 162.273438 151.988281 L 165.253906 149.230469 L 164.25 150.964844 C 164.46875 150.964844 165.03125 150.402344 165.941406 149.28125 L 169.140625 142.5 L 168.230469 144.082031 C 169.039062 143.308594 170.335938 139.628906 172.113281 133.046875 L 172.945312 127.773438 L 173.042969 119.835938 L 171.707031 114.84375 C 172.246094 115.710938 172.710938 116.691406 173.105469 117.789062 L 173.15625 116.640625 L 169.738281 108 L 168.132812 106.503906 L 164.226562 101.136719 L 164.964844 103.976562 L 164.214844 102.703125 C 164.132812 102.597656 164.195312 102.65625 164.402344 102.875 C 164.242188 102.765625 163.894531 102.027344 163.355469 100.660156 C 162.011719 99.703125 160.492188 98.03125 158.796875 95.644531 L 153.914062 91.832031 L 154.132812 91.617188 L 149.550781 89.027344 L 149.214844 89.460938 L 147.359375 89.070312 L 138.390625 86.585938 L 137.703125 86.199219 L 135.070312 85.855469 L 129.433594 86.621094 L 133.871094 85.703125 L 130.5 85.261719 L 134.304688 84.742188 C 136.6875 85.507812 137.953125 85.730469 138.097656 85.410156 L 134.582031 84.703125 L 135.835938 84.53125 L 147.667969 87.277344 L 158.683594 93.449219 L 161.449219 96 L 161.199219 94.984375 L 165.183594 99.636719 L 162.976562 96.363281 L 164.039062 97.332031 C 165.371094 99.890625 167.066406 102.453125 169.121094 105.011719 L 171.1875 109.902344 L 170.847656 108.304688 L 169.785156 105.316406 L 164.578125 96.960938 L 166.53125 99.207031 L 163.378906 95.035156 C 162.617188 94.703125 162.59375 94.859375 163.3125 95.503906 L 160.050781 92.9375 L 163.507812 96.203125 L 162.214844 95.320312 L 158.394531 92.148438 L 158.96875 92.085938 L 154.882812 88.875 L 143.027344 83.757812 L 128.082031 83.027344 M 154.042969 167.445312 L 144.859375 170.054688 L 141.589844 170.957031 L 141.570312 171.195312 L 149.671875 170.015625 L 147.6875 170.0625 L 154.042969 167.445312 M 119.53125 168.265625 L 119.414062 168.46875 L 119.296875 168.675781 L 129.113281 171.597656 L 130.113281 171.40625 L 119.53125 168.265625 M 122.941406 80.335938 L 119.035156 80.699219 L 111.054688 84.144531 L 102.375 89.511719 L 100.375 90.292969 L 93.332031 98.339844 L 96.007812 94.480469 C 92.984375 97.878906 90.90625 100.527344 89.777344 102.433594 L 86.582031 110.554688 L 83.679688 121.785156 L 83.152344 133.460938 L 84.746094 137.914062 L 85.066406 137.414062 L 84.644531 134.5625 L 87.210938 141.472656 L 91.519531 149.113281 L 97.570312 157.425781 C 92.152344 150.636719 89.09375 146.558594 88.390625 145.195312 L 94.253906 154.015625 L 100.734375 160.832031 C 103.363281 162.492188 106.015625 164.320312 108.6875 166.3125 L 116.277344 169.585938 L 125.789062 172.160156 L 127.730469 172.332031 L 121.886719 170.890625 L 111.671875 167.320312 L 102.171875 161.09375 L 94.835938 153.535156 L 93.914062 152.03125 L 101.597656 160.160156 L 109.476562 165.414062 L 103.367188 161.117188 L 95.980469 154.082031 L 92.027344 148.378906 L 87.050781 139.027344 L 85.277344 127.160156 L 86.691406 118.941406 L 88.421875 112.15625 L 93.527344 101.246094 L 95.472656 98.902344 L 89.96875 108.882812 L 87.582031 115.875 L 90.667969 109.460938 L 90.015625 109.9375 L 94.171875 101.363281 L 102.332031 91.886719 L 109.863281 87.507812 L 119.050781 83.300781 L 110.71875 86.4375 L 118.394531 83.191406 L 127.324219 81.398438 L 136.664062 81.933594 L 137.074219 81.652344 L 141.871094 82.714844 L 137.4375 81.222656 L 128.664062 80.601562 C 121.691406 81.320312 117.703125 81.878906 116.699219 82.28125 L 122.941406 80.335938 M 151.1875 172.265625 L 150.148438 172.4375 L 138.863281 173.929688 L 128.707031 174.433594 L 140.976562 174.167969 L 147.945312 172.960938 L 150.855469 172.597656 L 151.1875 172.265625 M 146.511719 174.644531 L 134.9375 175.792969 L 140.613281 175.589844 L 142.894531 175.464844 L 146.511719 174.644531 M 134.9375 175.792969 L 134.734375 175.796875 L 134.535156 175.804688 L 134.6875 175.816406 C 134.769531 175.808594 134.855469 175.800781 134.9375 175.792969 M 118.289062 174.371094 L 129.359375 175.988281 L 134.535156 175.804688 L 123.886719 175.089844 L 118.289062 174.371094 " fill-opacity="1" fill-rule="nonzero"/></g><g fill="#00c2ff" fill-opacity="1"><g transform="translate(122.849725, 218.607251)"><g><path d="M 34.84375 -93.421875 L 58.71875 -29.921875 L 59 -29.921875 L 83.03125 -93.421875 L 110.84375 -93.421875 L 110.84375 -82.046875 L 106.203125 -81.625 C 103.390625 -81.34375 102.03125 -79.703125 102.125 -76.703125 L 105.640625 -12.359375 L 114.359375 -11.9375 L 114.359375 0 L 80.5 0 L 80.5 -11.375 L 85.5625 -11.796875 C 88.082031 -11.984375 89.296875 -13.203125 89.203125 -15.453125 L 86.53125 -65.046875 L 86.25 -65.046875 L 64.625 -8.984375 L 51.28125 -8.984375 L 29.921875 -64.484375 L 29.640625 -64.484375 L 26.828125 -12.359375 L 35.96875 -11.9375 L 35.96875 0 L 2.8125 0 L 2.8125 -11.375 L 7.859375 -11.796875 C 10.015625 -11.984375 11.1875 -13.25 11.375 -15.59375 L 15.171875 -80.921875 L 6.609375 -81.484375 L 6.609375 -93.421875 Z M 34.84375 -93.421875 "/></g></g></g></svg>